<?xml version="1.0" encoding="utf-8"?>
<!-- Generator: Adobe Illustrator 16.0.0, SVG Export Plug-In . SVG Version: 6.00 Build 0)  -->
<!DOCTYPE svg PUBLIC "-//W3C//DTD SVG 1.1//EN" "http://www.w3.org/Graphics/SVG/1.1/DTD/svg11.dtd">
<svg version="1.1" id="图层_1" xmlns="http://www.w3.org/2000/svg" xmlns:xlink="http://www.w3.org/1999/xlink" x="0px" y="0px"
	 width="54px" height="54px" viewBox="0 0 54 54" enable-background="new 0 0 54 54" xml:space="preserve">
<g>
	<g>
		<g>
			<path fill="#4B8CFE" d="M45.1,28.487v-2.965l1.963-0.001c0,0,0.274,0.914,4.062,0.001C52.539,25.202,54,26.031,54,26.921
				c0,0.889-0.96,1.887-2.783,1.566c-1.826-0.318-3.698-0.561-4.215,0.053C46.044,28.55,45.1,28.487,45.1,28.487z"/>
			<path fill="#4B8CFE" d="M8.9,25.511l0.001,2.968H6.938c0,0-0.273-0.913-4.061,0C1.462,28.799,0,27.969,0,27.078
				c0-0.889,0.958-1.887,2.785-1.567C4.61,25.831,6.481,26.073,7,25.46C7.956,25.451,8.9,25.511,8.9,25.511z"/>
			<path fill="#4B8CFE" d="M13.062,38.571l2.1,2.098l-1.388,1.389c0,0-0.841-0.451-2.873,2.874
				c-0.774,1.227-2.394,1.673-3.023,1.044c-0.627-0.629-0.656-2.012,0.861-3.078c1.516-1.066,3.011-2.218,2.945-3.019
				C12.352,39.196,13.062,38.571,13.062,38.571z"/>
			<path fill="#4B8CFE" d="M25.522,45.098l2.966-0.002l0.001,1.965c0,0-0.913,0.274-0.001,4.062C28.808,52.54,27.978,54,27.09,54
				c-0.89,0-1.888-0.959-1.568-2.785s0.561-3.697-0.052-4.217C25.461,46.04,25.522,45.098,25.522,45.098z"/>
			<path fill="#4B8CFE" d="M28.496,8.901l-2.964,0.002l-0.001-1.964c0,0,0.913-0.275,0.001-4.063C25.21,1.46,26.04,0,26.931,0
				c0.89,0,1.886,0.958,1.565,2.785c-0.316,1.825-0.56,3.698,0.054,4.216C28.558,7.958,28.496,8.901,28.496,8.901z"/>
			<path fill="#4B8CFE" d="M40.755,15.171l-2.099-2.096l1.387-1.389c0,0,0.841,0.451,2.873-2.873
				c0.774-1.228,2.393-1.675,3.022-1.045c0.63,0.63,0.657,2.013-0.86,3.079c-1.518,1.064-3.012,2.217-2.944,3.017
				C41.463,14.547,40.755,15.171,40.755,15.171z"/>
			<path fill="#4B8CFE" d="M15.16,13.075l-2.097,2.099l-1.388-1.388c0,0,0.452-0.841-2.871-2.874
				C7.576,10.137,7.13,8.518,7.759,7.888c0.628-0.629,2.012-0.656,3.076,0.861c1.065,1.517,2.219,3.012,3.018,2.946
				C14.535,12.364,15.16,13.075,15.16,13.075z"/>
			<g>
				<polygon fill="#4B8CFE" points="20.5,19.539 20.099,20.607 20.3,21.141 21.499,20.341 22.432,21.661 22.432,22.476 
					22.432,23.677 21.267,24.914 20.899,26.278 20.5,27.279 20.565,28.167 20.5,29.881 20.899,30.884 20.766,31.429 20.3,31.429 
					20.099,30.613 18.772,30.16 18.772,32.415 18.033,33.148 18.366,33.542 18.772,33.148 19.501,33.216 20.565,32.281 
					20.966,32.747 20.634,33.542 20.899,34.015 21.434,34.015 21.232,34.948 21.635,36.217 21.368,36.528 21.232,36.685 
					21.768,37.351 21.232,37.686 20.233,36.884 20.233,36.217 19.701,35.483 19.231,35.683 19.434,36.483 19.53,36.731 19.1,36.884 
					18.772,36.417 18.033,36.083 17.833,36.433 16.299,35.884 16.019,36.192 14.764,35.483 14.366,36.217 13.633,36.017 
					14.167,34.948 12.7,32.349 11.699,32.482 12.7,34.282 11.964,34.882 12.7,35.747 12.23,36.352 11.031,31.429 11.964,28.612 
					11.699,27.211 13.432,25.346 15.9,25.708 17.032,24.61 20.034,22.342 19.632,21.141 				"/>
				<path fill="#4B8CFE" d="M44.577,31.072l-1.055,0.31l-0.252-1.941l-0.801-0.828l0.501-3.353l0.852-1.601L43.02,22.56
					l-1.899-2.703l0.05-1.895l-2.199-2.557l-0.201,0.879l-3.552-1.83l-0.398,1.501l-1.025,0.329l-0.174-1.83h-0.902v0.801
					l-0.849,0.3l-0.701-0.4l-2.001,1.899l1.002,0.501l-1.401,0.9l-1.501-0.496l-0.899,0.982h-0.55l0.951-0.982l-0.251-1.677
					l-1.049,1.223l0.101,1.05l-0.999,0.387c0,0-1.202,1.013-1.052,1.064c0.15,0.05,0.519,0.5,0.519,0.5l-0.533,0.351h-0.437
					l-0.249,0.551l2.15,0.252l0.4-0.252l0.75-0.15l0.351,0.402l1.549,0.548l0.349-0.249l0.953,0.249v0.451l0.898,1.2l-0.448,0.259
					v0.795l2.049,0.795v0.853l1.052,0.35l0.349,2.529l-2.002,1.443l-0.099,3.082l0.5,0.951l0.501-0.402l0.35,0.802l-0.701,1.45
					l-1.65-1.35l-0.299,0.451l0.299,0.6l-0.849,0.299l0.45,0.919h1.6l0.351,0.883l-1.352,0.802l0.502,0.85h0.599v0.55l-0.599,1.001
					l-1.75,1.148l0.397,0.551l1.553,0.352h2.508C39.033,41.685,43.227,36.925,44.577,31.072z"/>
			</g>
		</g>
		<path fill="#FFFFFF" d="M45.015,42.831c-3.322-2.033-2.873-2.873-2.873-2.873l-0.661-0.662c2.821-3.316,4.528-7.609,4.528-12.295
			c0-10.48-8.521-19.007-18.999-19.007C16.533,7.993,8.009,16.52,8.009,27c0,10.479,8.524,19.006,19.001,19.006
			c4.711,0,9.024-1.729,12.348-4.578c0.185,0.195,0.391,0.408,0.607,0.619c0.8-0.066,1.953,1.429,3.018,2.947
			c1.065,1.516,2.446,1.49,3.076,0.861C46.688,45.226,46.242,43.606,45.015,42.831z M44.188,26.849H37.01
			c-0.04-2.646-1.107-5.043-2.824-6.812l5.071-5.075C42.273,18.033,44.146,22.225,44.188,26.849z M25.425,25.2l-5.162-5.163
			c1.714-1.662,4.037-2.697,6.595-2.738v7.308C26.31,24.641,25.813,24.857,25.425,25.2z M26.858,29.394v7.306
			c-2.559-0.04-4.881-1.075-6.593-2.736l5.16-5.163C25.813,29.143,26.31,29.358,26.858,29.394z M20.048,19.822l-5.071-5.074
			c3.067-3.017,7.259-4.892,11.881-4.932v7.179C24.215,17.036,21.817,18.105,20.048,19.822z M25.21,25.415
			c-0.342,0.388-0.558,0.885-0.593,1.434h-7.303c0.039-2.562,1.073-4.882,2.734-6.598L25.21,25.415z M24.617,27.151
			c0.035,0.551,0.251,1.046,0.593,1.434l-5.162,5.164c-1.662-1.715-2.695-4.035-2.734-6.598H24.617z M26.858,37.003v7.18
			c-4.622-0.04-8.814-1.914-11.881-4.932l5.071-5.073C21.819,35.894,24.215,36.963,26.858,37.003z M27.161,16.996V9.817
			c4.622,0.04,8.814,1.915,11.882,4.932l-5.072,5.074C32.201,18.105,29.806,17.036,27.161,16.996z M33.754,20.037l-5.16,5.163
			c-0.388-0.343-0.884-0.559-1.433-0.593v-7.308C29.723,17.34,32.041,18.375,33.754,20.037z M27.161,29.394
			c1.206-0.076,2.165-1.034,2.241-2.242h7.304c-0.083,5.231-4.315,9.467-9.545,9.548V29.394z M29.402,26.849
			c-0.034-0.549-0.25-1.046-0.593-1.434l5.161-5.164c1.662,1.715,2.696,4.036,2.735,6.598H29.402z M14.763,14.962l5.071,5.075
			c-1.716,1.769-2.785,4.166-2.824,6.812H9.833C9.874,22.225,11.747,18.033,14.763,14.962z M9.833,27.151h7.177
			c0.039,2.646,1.108,5.042,2.824,6.812l-5.071,5.075C11.747,35.969,9.874,31.775,9.833,27.151z M39.977,38.256l-3.433-3.435
			c-0.473-0.473-1.241-0.473-1.716,0c-0.473,0.475-0.473,1.243,0,1.717l3.433,3.434c-2.979,2.59-6.857,4.174-11.1,4.211v-7.18
			c5.396-0.082,9.766-4.451,9.849-9.852h7.178C44.15,31.396,42.566,35.273,39.977,38.256z"/>
	</g>
</g>
</svg>
